<?xml version="1.0" encoding="utf-8"?>
<!-- Generator: Adobe Illustrator 16.0.0, SVG Export Plug-In . SVG Version: 6.00 Build 0)  -->
<!DOCTYPE svg PUBLIC "-//W3C//DTD SVG 1.1//EN" "http://www.w3.org/Graphics/SVG/1.1/DTD/svg11.dtd">
<svg version="1.1" id="Layer_1" xmlns="http://www.w3.org/2000/svg" xmlns:xlink="http://www.w3.org/1999/xlink" x="0px" y="0px"
	 width="1000px" height="667.139px" viewBox="300 199.931 1000 667.139" enable-background="new 300 199.931 1000 667.139"
	 xml:space="preserve">
<g>
	<path fill="#5B056A" d="M300,435.775h20.108l70.03,156.29l69.148-156.29h18.875l-80.438,176.928h-15.7L300,435.775z
		 M814.553,411.608h16.934v-20.462h-16.934V411.608z M536.373,435.775h16.934v50.273c13.936-31.575,43.395-54.507,78.497-53.096
		v18.698h-1.764c-40.924,0-76.733,30.869-76.733,88.552v72.5h-16.934V435.775z M628.982,636.869l9.879-13.936
		c20.639,16.405,44.275,25.049,69.677,25.049c39.514,0,67.385-23.284,67.385-68.796v-20.814
		c-11.467,20.639-37.573,40.925-71.794,40.925c-41.631,0-82.907-32.634-82.907-83.261v-0.705c0-50.979,41.276-83.966,82.907-83.966
		c34.573,0,61.386,19.404,71.794,39.513v-35.456h16.581v144.646c0,25.578-7.938,45.864-21.697,59.976
		c-14.817,15.348-37.22,23.638-62.621,23.638C669.731,664.034,640.448,646.747,628.982,636.869z M775.745,515.86v-0.706
		c0-40.924-34.045-67.384-70.03-67.384c-36.161,0-66.678,25.754-66.678,67.031v0.706c0,39.866,31.045,67.737,66.678,67.737
		C741.7,583.244,775.745,556.079,775.745,515.86z M814.553,435.775h16.934v176.928h-16.934V435.775z M496.155,411.608h16.935
		v-20.462h-16.935V411.608z M496.155,435.775h16.935v176.928h-16.935V435.775z M300.529,811.68v-0.706
		c0-43.218,39.866-57.682,78.321-57.682h54.507l0,0c0-35.81-21.521-54.154-57.329-54.154c-21.168,0-38.631,5.997-54.684,14.288
		l-6.703-14.993c17.463-8.82,38.455-15.348,62.445-15.348c23.461,0,42.335,6.527,55.036,19.404
		c11.643,11.819,17.815,28.047,17.815,49.921v110.425h-16.404v-29.459c-8.291,15.171-32.986,33.692-66.502,33.692
		C334.398,867.245,300.529,848.37,300.529,811.68z M433.709,795.98v-27.342h-50.626c-39.689,0-64.385,12.171-64.385,41.807v0.705
		c0,25.754,22.402,40.571,49.038,40.571C395.431,851.546,433.709,835.141,433.709,795.98z M574.299,811.68v-0.706
		c0-43.218,39.865-57.682,78.144-57.682h54.508l0,0c0-35.81-21.521-54.154-57.33-54.154c-21.167,0-38.631,5.997-54.683,14.288
		l-6.704-14.993c17.464-8.82,38.455-15.348,62.445-15.348c23.461,0,42.336,6.527,54.859,19.404
		c11.643,11.819,17.816,28.047,17.816,49.921v110.425H706.95v-29.459c-8.291,15.171-32.987,33.692-66.503,33.692
		C608.167,867.245,574.299,848.37,574.299,811.68z M707.479,795.98v-27.342h-50.626c-39.689,0-64.385,12.171-64.385,41.807v0.705
		c0,25.754,22.402,40.571,49.038,40.571C669.377,851.546,707.479,835.141,707.479,795.98z M536.373,638.104h16.934v224.908h-16.934
		V638.104z M745.581,685.025h16.934v32.987c11.819-20.815,31.576-37.221,63.856-37.221c51.86,0,70.559,38.103,70.559,74.44
		l0.177,107.779h-16.758v-99.665c0-24.872-6.526-66.854-56.271-66.854c-34.75,0-61.387,26.459-61.387,63.15v103.369h-16.935V685.025
		H745.581z M988.128,685.025h16.935v177.986h-16.935V685.025z M1026.406,774.283v-0.706c0-49.567,36.867-92.608,89.963-92.608
		c35.81,0,59.094,18.521,70.735,32.81l-11.995,12.349c-13.582-14.641-30.692-29.106-59.093-29.106
		c-40.219,0-71.089,33.692-71.089,76.028v0.705c0,42.688,31.929,76.733,72.5,76.733c25.049,0,44.275-11.995,59.27-28.4
		l11.643,10.407c-10.937,14.112-34.927,34.045-71.971,34.045C1063.274,866.363,1026.406,823.851,1026.406,774.283z M487.158,863.012
		V700.726h35.455v-15.7h-35.455v-46.922h-16.935v46.922v15.7v162.286H487.158z M935.385,863.012V700.726h35.456v-15.7h-35.456
		v-46.922H918.45v46.922v15.7v162.286H935.385z M988.128,658.037h16.935v-20.462h-16.935V658.037z M853.361,435.599h16.934v32.987
		c11.819-20.815,31.575-37.221,63.856-37.221c51.861,0,70.56,38.103,70.56,74.44l0.176,106.898h-16.935v-98.784
		c0-24.872-6.526-66.855-56.271-66.855c-34.751,0-61.386,26.46-61.386,63.15v102.488h-16.935V435.599L853.361,435.599z"/>
	<g>
		
			<linearGradient id="SVGID_1_" gradientUnits="userSpaceOnUse" x1="681.9622" y1="919.4355" x2="765.6342" y2="880.4187" gradientTransform="matrix(2.8205 0 0 -2.8205 -922.6422 2827.8242)">
			<stop  offset="0" style="stop-color:#E96E85"/>
			<stop  offset="0.0231" style="stop-color:#E5566C"/>
			<stop  offset="0.0507" style="stop-color:#E24256"/>
			<stop  offset="0.0833" style="stop-color:#E03245"/>
			<stop  offset="0.1237" style="stop-color:#DE263A"/>
			<stop  offset="0.1803" style="stop-color:#DD2033"/>
			<stop  offset="0.3374" style="stop-color:#DD1E31"/>
			<stop  offset="0.5168" style="stop-color:#DA1E30"/>
			<stop  offset="0.6469" style="stop-color:#D11D2F"/>
			<stop  offset="0.7614" style="stop-color:#C11B2C"/>
			<stop  offset="0.8669" style="stop-color:#AB1928"/>
			<stop  offset="0.9653" style="stop-color:#8E1622"/>
			<stop  offset="1" style="stop-color:#821520"/>
		</linearGradient>
		<path fill="url(#SVGID_1_)" d="M1300,199.931h-152.232c-47.098,0-58.563,7.762-77.438,28.4L934.151,377.563
			c108.661-5.115,142.354,104.428,252.602,74.44L1300,199.931z"/>
		
			<linearGradient id="SVGID_2_" gradientUnits="userSpaceOnUse" x1="765.3977" y1="861.5205" x2="704.1454" y2="917.6479" gradientTransform="matrix(2.8205 0 0 -2.8205 -922.6422 2827.8242)">
			<stop  offset="0.84" style="stop-color:#C52032;stop-opacity:0"/>
			<stop  offset="0.8683" style="stop-color:#C62335;stop-opacity:0.1826"/>
			<stop  offset="0.8898" style="stop-color:#C82D3E;stop-opacity:0.3214"/>
			<stop  offset="0.9091" style="stop-color:#CD3D4D;stop-opacity:0.4459"/>
			<stop  offset="0.9271" style="stop-color:#D35462;stop-opacity:0.562"/>
			<stop  offset="0.9442" style="stop-color:#DA727D;stop-opacity:0.6723"/>
			<stop  offset="0.9606" style="stop-color:#E4969F;stop-opacity:0.7782"/>
			<stop  offset="0.9765" style="stop-color:#EFC2C7;stop-opacity:0.8805"/>
			<stop  offset="0.9915" style="stop-color:#FCF3F4;stop-opacity:0.9777"/>
			<stop  offset="0.995" style="stop-color:#FFFFFF"/>
		</linearGradient>
		<path fill="url(#SVGID_2_)" d="M937.855,377.387l134.415-147.469c18.169-19.933,29.459-27.518,75.498-27.518h150.998
			l-112.014,249.427C1077.739,481.638,1043.694,374.917,937.855,377.387L937.855,377.387z"/>
		<path fill="#FFFFFF" d="M1099.612,258.671c0,0,6.527-12.524,11.818-16.758c0,0,5.821-3.705,5.821-9.525
			c0,0,0.354-3.881-2.822-6.351c0,0-8.29-6.527-14.817,4.939c0,0-30.693,60.151-40.748,120.656c0,0-0.881,1.94-1.059-3.528
			c0,0-5.468-50.45-5.645-52.39c-0.176-1.764-0.176-6.35-4.41-6.703c0,0-4.938-0.882-7.761,6.703l-13.583,34.75
			c0,0-2.293,4.41,1.588,5.998c0,0,4.233,2.293,6.879-3.528l6.174-13.936c1.235-2.822,2.293-2.47,2.293-2.47
			c0.706,0.176,1.059,2.999,1.059,2.999s6.703,67.737,6.703,68.266s0.705,5.998,5.292,5.821c3.353,0,4.234-3.704,4.939-6.879
			c0.529-2.999,6.351-35.456,16.053-70.383C1083.736,293.598,1092.203,270.667,1099.612,258.671z M1091.145,317.941
			c-6.526,1.588-7.232,8.997-7.232,8.997l-3.527,29.635c-0.53,5.821,7.055,1.411,7.055,1.411c3.176-1.94,3.528-5.821,3.528-5.821
			l1.059-7.409l3.352-20.109C1096.437,316.53,1091.145,317.941,1091.145,317.941z M1104.198,320.411c0,0-1.939,15.347-2.116,18.875
			c0,0-2.646,13.054,4.233,10.584c0,0,5.645-1.587,6.351-9.525l0.882-11.113c0,0,0.177-8.291,6.703-11.818
			c0,0,7.056-3.352,4.763-7.585c0,0-1.411-3.352-5.468-1.587c-3.176,1.411-4.763,1.587-4.763,1.587s-4.234,0.529-4.763,0.706
			C1109.843,310.532,1104.727,310.885,1104.198,320.411z M1098.553,302.947c4.234-3.528,2.999-6.351,2.999-6.351
			c-1.587-4.586-7.408,0.353-7.408,0.353c-4.763,3.528-3.176,7.056-3.176,7.056C1093.085,307.534,1098.553,302.947,1098.553,302.947
			z M1170.171,323.41c0,0,5.468-1.235,6.526-7.585c0,0,2.999-23.637,2.999-24.519c0.176-0.882,1.411-7.056-2.823-5.998
			c0,0-5.291,1.059-6.173,6.351l-3.881,23.285l-0.706,4.763C1166.114,319.705,1165.056,324.821,1170.171,323.41z M1182.696,273.842
			c0,0,4.586-3.881,2.469-6.704c0,0-1.939-2.999-7.408,1.059c0,0-4.939,4.057-1.765,6.879
			C1175.991,275.076,1178.815,277.722,1182.696,273.842z M1241.436,301.712c-1.059-1.94-4.057-3.175-8.996-0.882
			c-5.293,2.47-7.585,3.528-7.762,3.528s-6.527,3.528-5.998-5.292l1.765-20.462c0,0,0.705-7.409-5.116-7.409
			c0,0-3.175-0.353-7.938,4.057c0,0-2.47,2.293-4.233,2.822c-1.059,0.353-2.293,0.353-4.058-0.177
			c-1.764-0.529-3.527-0.353-4.762,0.177c0,0-5.646,1.587-5.821,9.172l-1.94,18.169c0,0-1.059,7.056-0.529,8.467
			c0,0,0.705,2.822,5.82,1.059c0,0,4.41-1.235,4.763-8.82c0,0,1.059-14.641,2.999-17.463c0,0,2.47-4.586,5.822-6.703
			c0,0,4.938-2.47,4.938,1.587l-1.587,16.758c0,0-1.587,8.291,2.117,9.525c0,0,0.353,0.177-0.53,0.706
			c0,0-23.813,10.584-54.683,28.224c1.94-17.464,5.115-41.983,5.115-41.983c0.529-4.057-4.41-3.881-4.41-3.881
			c-4.763-0.176-5.291,5.468-5.645,7.938c-0.353,2.47-3.704,22.226-3.704,22.226c-1.588,8.996-6.879,8.644-6.879,8.644
			c-5.293,0.706-2.294-13.583-2.294-13.583c1.411-5.116,1.764-9.35,5.646-12.877c3.881-3.352,4.232-7.762,1.234-7.762
			c-4.939-0.176-9.879,5.292-9.879,5.292c-8.643,8.82-8.29,29.811-8.29,29.811c0,6.703,4.409,8.644,4.409,8.644
			c5.646,2.47,13.23-2.117,13.23-2.117c1.764-1.235,1.588,0.529,1.588,0.529l-0.354,5.292
			c-22.578,13.406-47.45,30.164-68.971,49.039c0,0-9.879,7.409-6.175,12.348c4.058,5.116,9.525,0.353,11.643-1.764
			c0,0,22.05-23.285,62.798-49.392l-1.059,17.287c-0.529,7.761-2.646,31.751-2.646,31.751c-1.059,9.349,0.528,11.29,1.058,11.995
			c0.883,1.059,4.587,4.057,8.644,1.411c5.116-3.352,2.47-11.113,1.412-14.817c-0.882-3.704-0.882-9.702-0.882-9.702
			c0.352-4.939,2.646-38.455,2.646-38.455c0-1.235,0.176-3.175,0.353-5.468c15.699-9.525,33.691-19.227,53.802-28.047
			c0,0,8.644-3.528,16.228-5.998c0,0,2.471-0.882,5.646-1.94c4.233-1.235,9.701-3.175,11.113-5.645
			C1242.318,305.593,1242.671,303.653,1241.436,301.712z"/>
	</g>
</g>
</svg>
